<mxfile host="app.diagrams.net" modified="2021-01-14T06:38:32.817Z" agent="5.0 (Windows NT 10.0; Win64; x64) AppleWebKit/537.36 (KHTML, like Gecko) Chrome/87.0.4280.88 Safari/537.36" etag="fIqtxD_YpL3lpQxh5_fV" version="14.2.2" type="github">
  <diagram id="C5RBs43oDa-KdzZeNtuy" name="Page-1">
    <mxGraphModel dx="5209" dy="1985" grid="1" gridSize="10" guides="1" tooltips="1" connect="1" arrows="1" fold="1" page="1" pageScale="1" pageWidth="827" pageHeight="1169" math="0" shadow="0">
      <root>
        <mxCell id="WIyWlLk6GJQsqaUBKTNV-0" />
        <mxCell id="WIyWlLk6GJQsqaUBKTNV-1" parent="WIyWlLk6GJQsqaUBKTNV-0" />
        <mxCell id="hDGFuwB_ujLr0kbVoJyx-7" value="" style="rounded=1;whiteSpace=wrap;html=1;fontSize=12;glass=0;strokeWidth=1;shadow=0;" vertex="1" parent="WIyWlLk6GJQsqaUBKTNV-1">
          <mxGeometry x="-1350" y="880" width="2140" height="2025" as="geometry" />
        </mxCell>
        <mxCell id="hDGFuwB_ujLr0kbVoJyx-13" style="edgeStyle=orthogonalEdgeStyle;rounded=0;orthogonalLoop=1;jettySize=auto;html=1;entryX=0.5;entryY=0;entryDx=0;entryDy=0;strokeColor=#000000;" edge="1" parent="WIyWlLk6GJQsqaUBKTNV-1" source="WIyWlLk6GJQsqaUBKTNV-3" target="hDGFuwB_ujLr0kbVoJyx-7">
          <mxGeometry relative="1" as="geometry">
            <Array as="points">
              <mxPoint x="210" y="300" />
              <mxPoint x="-280" y="300" />
            </Array>
          </mxGeometry>
        </mxCell>
        <mxCell id="WIyWlLk6GJQsqaUBKTNV-3" value="&lt;font style=&quot;font-size: 18px&quot;&gt;타이틀 씬&lt;/font&gt;" style="rounded=1;whiteSpace=wrap;html=1;fontSize=12;glass=0;strokeWidth=1;shadow=0;" parent="WIyWlLk6GJQsqaUBKTNV-1" vertex="1">
          <mxGeometry x="140" y="150" width="140" height="100" as="geometry" />
        </mxCell>
        <mxCell id="hDGFuwB_ujLr0kbVoJyx-1" style="edgeStyle=orthogonalEdgeStyle;rounded=0;orthogonalLoop=1;jettySize=auto;html=1;entryX=0.5;entryY=0;entryDx=0;entryDy=0;" edge="1" parent="WIyWlLk6GJQsqaUBKTNV-1" source="hDGFuwB_ujLr0kbVoJyx-0" target="WIyWlLk6GJQsqaUBKTNV-3">
          <mxGeometry relative="1" as="geometry" />
        </mxCell>
        <mxCell id="hDGFuwB_ujLr0kbVoJyx-0" value="&lt;font style=&quot;font-size: 18px&quot;&gt;게임시작&lt;/font&gt;" style="rounded=1;whiteSpace=wrap;html=1;" vertex="1" parent="WIyWlLk6GJQsqaUBKTNV-1">
          <mxGeometry x="70" y="10" width="280" height="70" as="geometry" />
        </mxCell>
        <mxCell id="hDGFuwB_ujLr0kbVoJyx-2" value="" style="endArrow=classic;html=1;strokeColor=#000000;exitX=0;exitY=0.5;exitDx=0;exitDy=0;entryX=1;entryY=0.5;entryDx=0;entryDy=0;" edge="1" parent="WIyWlLk6GJQsqaUBKTNV-1" source="WIyWlLk6GJQsqaUBKTNV-3" target="hDGFuwB_ujLr0kbVoJyx-5">
          <mxGeometry width="50" height="50" relative="1" as="geometry">
            <mxPoint x="130" y="200" as="sourcePoint" />
            <mxPoint x="10" y="200" as="targetPoint" />
          </mxGeometry>
        </mxCell>
        <mxCell id="hDGFuwB_ujLr0kbVoJyx-3" value="게임종료" style="rounded=1;whiteSpace=wrap;html=1;" vertex="1" parent="WIyWlLk6GJQsqaUBKTNV-1">
          <mxGeometry x="-330" y="180" width="120" height="40" as="geometry" />
        </mxCell>
        <mxCell id="hDGFuwB_ujLr0kbVoJyx-6" style="edgeStyle=orthogonalEdgeStyle;rounded=0;orthogonalLoop=1;jettySize=auto;html=1;strokeColor=#000000;" edge="1" parent="WIyWlLk6GJQsqaUBKTNV-1" source="hDGFuwB_ujLr0kbVoJyx-5">
          <mxGeometry relative="1" as="geometry">
            <mxPoint x="-210" y="200" as="targetPoint" />
            <Array as="points">
              <mxPoint x="-190" y="200" />
              <mxPoint x="-190" y="200" />
            </Array>
          </mxGeometry>
        </mxCell>
        <mxCell id="hDGFuwB_ujLr0kbVoJyx-5" value="종료확인" style="rhombus;whiteSpace=wrap;html=1;" vertex="1" parent="WIyWlLk6GJQsqaUBKTNV-1">
          <mxGeometry x="-90" y="150" width="110" height="100" as="geometry" />
        </mxCell>
        <mxCell id="hDGFuwB_ujLr0kbVoJyx-9" value="" style="endArrow=classic;html=1;strokeColor=#000000;exitX=1;exitY=0.5;exitDx=0;exitDy=0;entryX=0;entryY=0.5;entryDx=0;entryDy=0;" edge="1" parent="WIyWlLk6GJQsqaUBKTNV-1" source="WIyWlLk6GJQsqaUBKTNV-3">
          <mxGeometry width="50" height="50" relative="1" as="geometry">
            <mxPoint x="300" y="240" as="sourcePoint" />
            <mxPoint x="360" y="200" as="targetPoint" />
          </mxGeometry>
        </mxCell>
        <mxCell id="hDGFuwB_ujLr0kbVoJyx-10" value="설정창&amp;nbsp;" style="rounded=0;whiteSpace=wrap;html=1;" vertex="1" parent="WIyWlLk6GJQsqaUBKTNV-1">
          <mxGeometry x="360" y="150" width="120" height="100" as="geometry" />
        </mxCell>
        <mxCell id="hDGFuwB_ujLr0kbVoJyx-79" style="edgeStyle=orthogonalEdgeStyle;rounded=0;orthogonalLoop=1;jettySize=auto;html=1;entryX=0;entryY=0.75;entryDx=0;entryDy=0;strokeColor=#000000;" edge="1" parent="WIyWlLk6GJQsqaUBKTNV-1" source="hDGFuwB_ujLr0kbVoJyx-26" target="WIyWlLk6GJQsqaUBKTNV-3">
          <mxGeometry relative="1" as="geometry">
            <Array as="points">
              <mxPoint x="-1010" y="120" />
              <mxPoint x="80" y="120" />
              <mxPoint x="80" y="225" />
            </Array>
          </mxGeometry>
        </mxCell>
        <mxCell id="hDGFuwB_ujLr0kbVoJyx-82" style="edgeStyle=orthogonalEdgeStyle;rounded=0;orthogonalLoop=1;jettySize=auto;html=1;entryX=0.5;entryY=0;entryDx=0;entryDy=0;strokeColor=#000000;" edge="1" parent="WIyWlLk6GJQsqaUBKTNV-1" source="hDGFuwB_ujLr0kbVoJyx-26" target="hDGFuwB_ujLr0kbVoJyx-7">
          <mxGeometry relative="1" as="geometry" />
        </mxCell>
        <mxCell id="hDGFuwB_ujLr0kbVoJyx-26" value="&lt;font style=&quot;font-size: 18px&quot;&gt;2명이 사망했는가&lt;/font&gt;" style="rhombus;whiteSpace=wrap;html=1;" vertex="1" parent="WIyWlLk6GJQsqaUBKTNV-1">
          <mxGeometry x="-1100" y="200" width="180" height="160" as="geometry" />
        </mxCell>
        <mxCell id="hDGFuwB_ujLr0kbVoJyx-37" value="&lt;font style=&quot;font-size: 20px&quot;&gt;정보 입력&lt;/font&gt;" style="text;html=1;strokeColor=none;fillColor=none;align=center;verticalAlign=middle;whiteSpace=wrap;rounded=0;" vertex="1" parent="WIyWlLk6GJQsqaUBKTNV-1">
          <mxGeometry x="-1290" y="240" width="140" height="50" as="geometry" />
        </mxCell>
        <mxCell id="hDGFuwB_ujLr0kbVoJyx-41" value="&lt;font style=&quot;font-size: 25px&quot;&gt;게임 시작 버튼 입력&amp;nbsp;&lt;/font&gt;" style="text;html=1;strokeColor=none;fillColor=none;align=center;verticalAlign=middle;whiteSpace=wrap;rounded=0;" vertex="1" parent="WIyWlLk6GJQsqaUBKTNV-1">
          <mxGeometry x="-110" y="300" width="260" height="40" as="geometry" />
        </mxCell>
        <mxCell id="hDGFuwB_ujLr0kbVoJyx-51" value="" style="group" vertex="1" connectable="0" parent="WIyWlLk6GJQsqaUBKTNV-1">
          <mxGeometry x="-870" y="1200" width="530" height="530" as="geometry" />
        </mxCell>
        <mxCell id="hDGFuwB_ujLr0kbVoJyx-38" value="" style="rounded=1;whiteSpace=wrap;html=1;" vertex="1" parent="hDGFuwB_ujLr0kbVoJyx-51">
          <mxGeometry width="320" height="470" as="geometry" />
        </mxCell>
        <mxCell id="hDGFuwB_ujLr0kbVoJyx-40" value="&lt;span style=&quot;font-size: 24px&quot;&gt;카드 분배&lt;/span&gt;" style="shape=process;whiteSpace=wrap;html=1;backgroundOutline=1;" vertex="1" parent="hDGFuwB_ujLr0kbVoJyx-51">
          <mxGeometry x="35" y="35" width="270" height="60" as="geometry" />
        </mxCell>
        <mxCell id="hDGFuwB_ujLr0kbVoJyx-45" value="&lt;font style=&quot;font-size: 20px&quot;&gt;카드 5장 랜덤 분배&lt;/font&gt;" style="rounded=1;whiteSpace=wrap;html=1;" vertex="1" parent="hDGFuwB_ujLr0kbVoJyx-51">
          <mxGeometry x="60" y="190" width="220" height="100" as="geometry" />
        </mxCell>
        <mxCell id="hDGFuwB_ujLr0kbVoJyx-49" value="&lt;font style=&quot;font-size: 20px&quot;&gt;카드 5장 선택 분배&lt;/font&gt;" style="whiteSpace=wrap;html=1;rounded=1;" vertex="1" parent="hDGFuwB_ujLr0kbVoJyx-51">
          <mxGeometry x="60" y="350" width="220" height="100" as="geometry" />
        </mxCell>
        <mxCell id="hDGFuwB_ujLr0kbVoJyx-50" value="" style="edgeStyle=orthogonalEdgeStyle;rounded=0;orthogonalLoop=1;jettySize=auto;html=1;strokeColor=#000000;" edge="1" parent="hDGFuwB_ujLr0kbVoJyx-51" source="hDGFuwB_ujLr0kbVoJyx-45" target="hDGFuwB_ujLr0kbVoJyx-49">
          <mxGeometry relative="1" as="geometry" />
        </mxCell>
        <mxCell id="hDGFuwB_ujLr0kbVoJyx-64" value="" style="group" vertex="1" connectable="0" parent="WIyWlLk6GJQsqaUBKTNV-1">
          <mxGeometry x="-1330" y="1090" width="320" height="600" as="geometry" />
        </mxCell>
        <mxCell id="hDGFuwB_ujLr0kbVoJyx-46" value="" style="rounded=1;whiteSpace=wrap;html=1;" vertex="1" parent="hDGFuwB_ujLr0kbVoJyx-64">
          <mxGeometry width="320" height="600" as="geometry" />
        </mxCell>
        <mxCell id="hDGFuwB_ujLr0kbVoJyx-55" value="&lt;font style=&quot;font-size: 18px&quot;&gt;이등병&lt;/font&gt;" style="rounded=0;whiteSpace=wrap;html=1;" vertex="1" parent="hDGFuwB_ujLr0kbVoJyx-64">
          <mxGeometry x="110" y="380" width="120" height="60" as="geometry" />
        </mxCell>
        <mxCell id="hDGFuwB_ujLr0kbVoJyx-56" value="&lt;font style=&quot;font-size: 18px&quot;&gt;일등병&lt;/font&gt;" style="rounded=0;whiteSpace=wrap;html=1;" vertex="1" parent="hDGFuwB_ujLr0kbVoJyx-64">
          <mxGeometry x="110" y="280" width="120" height="60" as="geometry" />
        </mxCell>
        <mxCell id="hDGFuwB_ujLr0kbVoJyx-57" value="&lt;font style=&quot;font-size: 18px&quot;&gt;병장&lt;/font&gt;" style="rounded=0;whiteSpace=wrap;html=1;" vertex="1" parent="hDGFuwB_ujLr0kbVoJyx-64">
          <mxGeometry x="110" y="180" width="120" height="60" as="geometry" />
        </mxCell>
        <mxCell id="hDGFuwB_ujLr0kbVoJyx-58" value="&lt;font style=&quot;font-size: 18px&quot;&gt;소대장&lt;/font&gt;" style="rounded=0;whiteSpace=wrap;html=1;" vertex="1" parent="hDGFuwB_ujLr0kbVoJyx-64">
          <mxGeometry x="110" y="80" width="120" height="60" as="geometry" />
        </mxCell>
        <mxCell id="hDGFuwB_ujLr0kbVoJyx-59" value="플레이어 상태 창" style="shape=process;whiteSpace=wrap;html=1;backgroundOutline=1;" vertex="1" parent="hDGFuwB_ujLr0kbVoJyx-64">
          <mxGeometry x="30" y="15" width="270" height="60" as="geometry" />
        </mxCell>
        <mxCell id="hDGFuwB_ujLr0kbVoJyx-60" value="&lt;font style=&quot;font-size: 18px&quot;&gt;부소대장&lt;/font&gt;" style="rounded=0;whiteSpace=wrap;html=1;" vertex="1" parent="hDGFuwB_ujLr0kbVoJyx-64">
          <mxGeometry x="110" y="490" width="120" height="60" as="geometry" />
        </mxCell>
        <mxCell id="hDGFuwB_ujLr0kbVoJyx-71" style="edgeStyle=orthogonalEdgeStyle;rounded=0;orthogonalLoop=1;jettySize=auto;html=1;strokeColor=#000000;" edge="1" parent="WIyWlLk6GJQsqaUBKTNV-1" source="hDGFuwB_ujLr0kbVoJyx-58">
          <mxGeometry relative="1" as="geometry">
            <mxPoint x="-1100" y="280" as="targetPoint" />
            <Array as="points">
              <mxPoint x="-1400" y="1190" />
              <mxPoint x="-1400" y="280" />
            </Array>
          </mxGeometry>
        </mxCell>
        <mxCell id="hDGFuwB_ujLr0kbVoJyx-72" style="edgeStyle=orthogonalEdgeStyle;rounded=0;orthogonalLoop=1;jettySize=auto;html=1;entryX=0;entryY=0.5;entryDx=0;entryDy=0;strokeColor=#000000;" edge="1" parent="WIyWlLk6GJQsqaUBKTNV-1" source="hDGFuwB_ujLr0kbVoJyx-57" target="hDGFuwB_ujLr0kbVoJyx-26">
          <mxGeometry relative="1" as="geometry">
            <Array as="points">
              <mxPoint x="-1400" y="1290" />
              <mxPoint x="-1400" y="280" />
            </Array>
          </mxGeometry>
        </mxCell>
        <mxCell id="hDGFuwB_ujLr0kbVoJyx-75" style="edgeStyle=orthogonalEdgeStyle;rounded=0;orthogonalLoop=1;jettySize=auto;html=1;entryX=0;entryY=0.5;entryDx=0;entryDy=0;strokeColor=#000000;" edge="1" parent="WIyWlLk6GJQsqaUBKTNV-1" source="hDGFuwB_ujLr0kbVoJyx-56" target="hDGFuwB_ujLr0kbVoJyx-26">
          <mxGeometry relative="1" as="geometry">
            <Array as="points">
              <mxPoint x="-1400" y="1390" />
              <mxPoint x="-1400" y="280" />
            </Array>
          </mxGeometry>
        </mxCell>
        <mxCell id="hDGFuwB_ujLr0kbVoJyx-76" style="edgeStyle=orthogonalEdgeStyle;rounded=0;orthogonalLoop=1;jettySize=auto;html=1;entryX=0;entryY=0.5;entryDx=0;entryDy=0;strokeColor=#000000;" edge="1" parent="WIyWlLk6GJQsqaUBKTNV-1" source="hDGFuwB_ujLr0kbVoJyx-55" target="hDGFuwB_ujLr0kbVoJyx-26">
          <mxGeometry relative="1" as="geometry">
            <Array as="points">
              <mxPoint x="-1400" y="1490" />
              <mxPoint x="-1400" y="280" />
            </Array>
          </mxGeometry>
        </mxCell>
        <mxCell id="hDGFuwB_ujLr0kbVoJyx-77" style="edgeStyle=orthogonalEdgeStyle;rounded=0;orthogonalLoop=1;jettySize=auto;html=1;entryX=0.044;entryY=0.413;entryDx=0;entryDy=0;entryPerimeter=0;strokeColor=#000000;" edge="1" parent="WIyWlLk6GJQsqaUBKTNV-1" source="hDGFuwB_ujLr0kbVoJyx-60" target="hDGFuwB_ujLr0kbVoJyx-26">
          <mxGeometry relative="1" as="geometry">
            <Array as="points">
              <mxPoint x="-1400" y="1600" />
              <mxPoint x="-1400" y="280" />
              <mxPoint x="-1092" y="280" />
            </Array>
          </mxGeometry>
        </mxCell>
        <mxCell id="hDGFuwB_ujLr0kbVoJyx-80" value="&lt;font style=&quot;font-size: 20px&quot;&gt;네&lt;/font&gt;" style="text;html=1;strokeColor=none;fillColor=none;align=center;verticalAlign=middle;whiteSpace=wrap;rounded=0;" vertex="1" parent="WIyWlLk6GJQsqaUBKTNV-1">
          <mxGeometry x="-655" y="90" width="125" height="20" as="geometry" />
        </mxCell>
        <mxCell id="hDGFuwB_ujLr0kbVoJyx-83" value="&lt;font style=&quot;font-size: 25px&quot;&gt;아니오&lt;/font&gt;" style="text;html=1;strokeColor=none;fillColor=none;align=center;verticalAlign=middle;whiteSpace=wrap;rounded=0;" vertex="1" parent="WIyWlLk6GJQsqaUBKTNV-1">
          <mxGeometry x="-740" y="590" width="125" height="20" as="geometry" />
        </mxCell>
        <mxCell id="hDGFuwB_ujLr0kbVoJyx-84" value="&lt;font style=&quot;font-size: 42px&quot;&gt;게임 플레이 씬&lt;/font&gt;" style="shape=process;whiteSpace=wrap;html=1;backgroundOutline=1;" vertex="1" parent="WIyWlLk6GJQsqaUBKTNV-1">
          <mxGeometry x="-1210" y="940" width="1850" height="130" as="geometry" />
        </mxCell>
      </root>
    </mxGraphModel>
  </diagram>
</mxfile>
